<svg xmlns="http://www.w3.org/2000/svg" width="500" height="500" viewBox="0 0 500 500" version="1.1"><path d="M 211.882 130.331 C 201.523 134.175, 194.242 142.101, 190.869 153.206 C 185.696 170.235, 193.850 189.046, 209.500 196.189 C 216.990 199.607, 227.634 199.392, 235.245 195.669 C 260.478 183.323, 260.353 144.142, 235.040 131.753 C 229.492 129.038, 217.372 128.293, 211.882 130.331 M 213.500 140.012 C 209.199 140.931, 206.576 142.527, 203.648 146.007 C 196.579 154.408, 201.043 167.835, 211.996 171.117 C 217.885 172.881, 222.781 171.483, 227.592 166.664 C 233.192 161.053, 234.158 155.884, 230.843 149.274 C 227.204 142.019, 220.603 138.494, 213.500 140.012 M 152.500 304.896 C 148.187 306.893, 144.808 310.194, 140.640 316.482 L 138 320.464 138.011 343.482 C 138.017 356.142, 138.302 368.196, 138.645 370.268 C 139.658 376.397, 144.890 384.052, 150.381 387.439 C 160.465 393.659, 174.959 391.539, 182.489 382.742 C 188.261 375.999, 189 372.193, 189 349.228 L 189 328.811 182.981 320.474 C 171.151 304.087, 163.117 299.981, 152.500 304.896 M 241.469 304.399 C 239.802 305.125, 236.314 308.081, 233.719 310.968 L 229 316.216 229 366.930 C 229 425.433, 228.806 423.936, 237.528 432.659 C 248.706 443.837, 265.294 443.837, 276.472 432.659 C 285.027 424.104, 285 424.280, 285 376.319 L 285 334.995 280.964 331.348 C 278.744 329.343, 274.508 324.282, 271.549 320.101 C 268.591 315.920, 264.670 311.060, 262.836 309.301 C 256.706 303.421, 248.194 301.469, 241.469 304.399 M 331.021 304.116 C 324.719 306.630, 325 304.699, 325 345.529 C 325 385.784, 325.212 387.655, 330.554 394.659 C 336.923 403.010, 349.871 406.262, 359.778 402 C 362.641 400.769, 366.606 397.965, 368.589 395.770 C 375.051 388.617, 375.357 387.121, 375.783 360.500 L 376.167 336.500 371.509 332.638 C 368.947 330.513, 363.795 324.663, 360.061 319.638 C 356.327 314.612, 352.192 309.509, 350.873 308.298 C 345.761 303.607, 336.949 301.751, 331.021 304.116" stroke="none" fill="#3f4698" fill-rule="evenodd"/><path d="M 226.500 53.059 C 161.871 63.002, 107.760 109.011, 85.611 172.850 C 69.014 220.689, 72.309 273.237, 94.768 318.876 C 99.174 327.830, 101.212 330.866, 104.337 333.129 C 117.342 342.550, 130.001 337.281, 139.435 318.520 C 142.501 312.424, 149.859 305.388, 154.650 303.971 C 164.723 300.991, 171.960 305.207, 182.981 320.474 L 189 328.811 189.227 349.156 L 189.454 369.500 189.748 350.305 L 190.043 331.109 195.126 334.269 C 205.432 340.676, 216.113 337.574, 223.901 325.911 L 227.981 319.801 228.250 368.650 L 228.519 417.500 228.760 366.858 L 229 316.216 233.722 310.964 C 238.881 305.226, 243.011 303, 248.500 303 C 256.577 303, 262.623 307.485, 271.549 320.101 C 274.508 324.282, 278.744 329.343, 280.964 331.348 L 285 334.995 285.238 376.247 L 285.477 417.500 285.750 376.686 C 286.005 338.458, 286.133 335.905, 287.761 336.389 C 295.766 338.766, 301.232 337.588, 307.215 332.196 C 309.471 330.163, 314.058 324.230, 317.409 319.012 L 323.500 309.523 323.988 346.012 L 324.476 382.500 324.988 345.107 L 325.500 307.715 328.136 305.747 C 331.495 303.240, 338.696 302.414, 343.467 303.989 C 348.600 305.683, 353.027 309.840, 360.037 319.551 C 372.444 336.738, 382.509 341.442, 394.076 335.461 C 406.595 328.987, 420.113 296.760, 424.600 262.695 C 426.779 246.147, 426.071 216.059, 423.135 200.500 C 409.233 126.811, 355.350 70.253, 284.395 54.869 C 276.420 53.140, 270.426 52.667, 253.500 52.430 C 241.950 52.268, 229.800 52.551, 226.500 53.059 M 232.757 102.965 C 197.289 109.450, 168.602 139.005, 160.411 177.500 C 158.286 187.485, 158.514 208.167, 160.874 219.518 C 167.106 249.493, 185.502 268.585, 215.500 276.212 C 223.546 278.257, 226.779 278.494, 246 278.447 C 271.032 278.385, 276.929 277.245, 293 269.357 C 300.631 265.612, 303.989 263.200, 310.069 257.097 C 318.860 248.272, 322.720 241.937, 326.892 229.479 C 334.353 207.204, 333.299 179.140, 324.226 158.500 C 312.561 131.965, 290.855 112.029, 266 105.023 C 257.576 102.649, 240.328 101.581, 232.757 102.965 M 219.750 128.706 C 220.988 128.944, 223.012 128.944, 224.250 128.706 C 225.488 128.467, 224.475 128.272, 222 128.272 C 219.525 128.272, 218.512 128.467, 219.750 128.706 M 214.762 171.707 C 216.006 171.946, 217.806 171.937, 218.762 171.687 C 219.718 171.437, 218.700 171.241, 216.500 171.252 C 214.300 171.263, 213.518 171.468, 214.762 171.707 M 199 189.500 C 200.866 191.425, 202.617 193, 202.892 193 C 203.167 193, 201.866 191.425, 200 189.500 C 198.134 187.575, 196.383 186, 196.108 186 C 195.833 186, 197.134 187.575, 199 189.500 M 139.004 374.583 C 139.008 375.706, 142.783 382, 143.452 382 C 143.716 382, 142.966 380.313, 141.786 378.250 C 139.141 373.630, 138.999 373.444, 139.004 374.583 M 375.232 382 C 375.232 383.925, 375.438 384.712, 375.689 383.750 C 375.941 382.788, 375.941 381.212, 375.689 380.250 C 375.438 379.288, 375.232 380.075, 375.232 382 M 160.768 391.725 C 162.565 391.947, 165.265 391.943, 166.768 391.715 C 168.271 391.486, 166.800 391.304, 163.500 391.310 C 160.200 391.315, 158.971 391.502, 160.768 391.725 M 368.564 395.783 C 365.039 400.008, 364.969 400.187, 367.900 397.500 C 370.676 394.954, 373.720 390.925, 372.785 391.033 C 372.628 391.051, 370.729 393.188, 368.564 395.783 M 348.762 404.707 C 350.006 404.946, 351.806 404.937, 352.762 404.687 C 353.718 404.437, 352.700 404.241, 350.500 404.252 C 348.300 404.263, 347.518 404.468, 348.762 404.707 M 234 430.313 C 234 430.485, 235.463 431.948, 237.250 433.563 L 240.500 436.500 237.563 433.250 C 234.825 430.221, 234 429.540, 234 430.313 M 276.437 433.250 L 273.500 436.500 276.750 433.563 C 279.779 430.825, 280.460 430, 279.687 430 C 279.515 430, 278.052 431.462, 276.437 433.250 M 255.250 441.689 C 256.212 441.941, 257.788 441.941, 258.750 441.689 C 259.712 441.438, 258.925 441.232, 257 441.232 C 255.075 441.232, 254.287 441.438, 255.250 441.689" stroke="none" fill="#fa71ab" fill-rule="evenodd"/></svg>