<svg xmlns="http://www.w3.org/2000/svg" xmlns:xlink="http://www.w3.org/1999/xlink" width="500" zoomAndPan="magnify" viewBox="0 0 375 374.999991" height="500" preserveAspectRatio="xMidYMid meet" version="1.0"><defs><g/></defs><rect x="-37.5" width="450" fill="#ffffff" y="-37.499999" height="449.999989" fill-opacity="1"/><rect x="-37.5" width="450" fill="#111c3c" y="-37.499999" height="449.999989" fill-opacity="1"/><g fill="#59dfd3" fill-opacity="1"><g transform="translate(87.44619, 281.890973)"><g><path d="M 26.09375 -203.296875 L 189.609375 -203.296875 L 189.609375 -162.890625 L 76.984375 -162.890625 L 77.3125 -135.53125 L 77.3125 -108.171875 L 128.203125 -108.171875 C 162.773438 -108.171875 180.59375 -108.0625 181.65625 -107.84375 L 183.890625 -107.53125 L 183.890625 -67.125 L 130.75 -67.125 L 77.3125 -66.8125 L 77.3125 -19.09375 L 76.984375 32.453125 L 25.453125 32.453125 L 25.765625 -83.671875 C 25.765625 -104.242188 25.765625 -124.390625 25.765625 -144.109375 C 25.765625 -163.835938 25.875 -183.351562 26.09375 -202.65625 Z M 26.09375 -203.296875 "/></g></g></g></svg>